<svg xmlns="http://www.w3.org/2000/svg" viewBox="0 0 480 86">
    <title>saloon logomark (simple), by caneco</title>
    <path d="M62.49,71.26C57.69,78.57,49.28,83,41.11,84.85A48.62,48.62,0,0,1,30.39,86c-9.53,0-17.52-2.66-24.09-7.91a2.43,2.43,0,0,0-.54.3A12.14,12.14,0,0,1,2,80.75c-3.61.72-1.42-5.38-.88-6.89C2,71.14,3,68.37,3.93,65.65s1.77-5.5,2.66-8.22c.48-1.57,2.43-7.73,4.8-4.89.89,1,1.24,3.2,1.6,4.17.12.3.17.6.29.91a1.59,1.59,0,0,1,.36.3,30.32,30.32,0,0,0,6.22,4,22.26,22.26,0,0,0,9.82,2.24c2.19,0,13.8-1.75,10.48-5.74-1.83-2.17-6.15-3.56-8.88-4.05-7-1.2-11-1.93-11.6-2.11C.2,46.32-4.54,23.61,8.13,10.15,14.05,3.8,24.53,0,32.88,0q17.85,0,28.6,10A6,6,0,0,1,64,8.58c3.61-.73,1.42,5.31.88,6.88C64,18.18,63,20.9,62.07,23.61s-1.77,5.5-2.66,8.22c-.48,1.57-2.43,7.73-4.8,5-.89-1.09-1.24-3.2-1.6-4.17-.41-1.21-.83-2.41-1.3-3.56a6.45,6.45,0,0,0-.89-.73,28.78,28.78,0,0,0-6.33-4.4c-4.56-2.36-17.06-7.25-20-.25C21.57,30.5,31.7,32.31,36,33.22,44,35,48.1,35.87,48.51,35.93A24.62,24.62,0,0,1,60.3,44C66.63,51.7,68.11,62.69,62.49,71.26Zm151.93-9.91a11,11,0,0,0-3.09,2.38c-.81.59-1.57,1.25-2.39,1.84-3,.06-6.58.24-10.84.48-7,.36-12.36.59-15.85.59h-1.52a1,1,0,0,1-.87-1,11.33,11.33,0,0,1-.12-1.43c-.06-2.32-.06-6.07-.06-11.19l.06-15.84c.52-14.11,1-24.89,1.46-32.39A5.67,5.67,0,0,0,183,3.06c1.81-3.22-4.43-3.1-6-3-2.8,0-5.54,0-8.34.06S163.07,0,160.27,0c-1.57-.06-7.81-.18-6,3a8.85,8.85,0,0,0,2.56,2.32c.06,4.52.18,10.6.41,18.28.23,9.23.41,16.19.41,20.84,0,4.34-.06,10.89-.24,19.58,0,6.79-.17,12.21-.17,16.32a10,10,0,0,0-3,2.5c-1.81,3.09,4.43,3,6,3,2.8-.06,5.6-.06,8.39-.06h1.75l13.64.17c1.75.06,23.15-.35,26.53-.35a10.5,10.5,0,0,0,2.39-.12,1.86,1.86,0,0,0,1.1-1.43,10.29,10.29,0,0,0,.88-3.75c.29-2.26.58-4.53.81-6.85s.65-4.52.94-6.79C216.93,65.39,217.69,60.27,214.42,61.35ZM294.3,19c-2.16,3.16-4.31,6.27-6.47,9.38-.54.89-1.19,1.73-1.79,2.57-.42.6-.84,1.25-1.26,1.79a15.55,15.55,0,0,0-3.11,5.8,2.46,2.46,0,0,1-.54,1,22.49,22.49,0,0,1,.24,3.47,21.35,21.35,0,0,1-5.63,14.64,19,19,0,0,1-14.48,6.58A19.17,19.17,0,0,1,246.48,58a22.49,22.49,0,0,1,.35-29.58,19.41,19.41,0,0,1,28-1.32c.18,1.26.24,2.51.36,3.77a13.68,13.68,0,0,0,.42,4.42c1.62,3.29,5.09-2.09,6-3.41,1.61-2.39,3.17-4.78,4.79-7.17s3.23-4.72,4.84-7c1-1.31,4.67-6.51,1-6.81a4.08,4.08,0,0,0-1.67.3Q278.59,0,261.26,0q-18.67,0-30.94,12.67a44.26,44.26,0,0,0,0,60.78Q242.61,86,261.26,86t31-12.43c8-8.19,12-18.35,12-30.48a42.38,42.38,0,0,0-8.32-26A16.06,16.06,0,0,1,294.3,19Zm89.23,0c-2.15,3.16-4.31,6.27-6.46,9.38-.54.89-1.2,1.73-1.8,2.57-.42.6-.84,1.25-1.25,1.79a15.58,15.58,0,0,0-3.12,5.8,2.46,2.46,0,0,1-.54,1A22.49,22.49,0,0,1,370.6,43,21.34,21.34,0,0,1,365,57.61a19,19,0,0,1-14.49,6.58A19.19,19.19,0,0,1,335.71,58a22.51,22.51,0,0,1,.36-29.58,19.41,19.41,0,0,1,28-1.32c.18,1.26.24,2.51.36,3.77a13.68,13.68,0,0,0,.42,4.42c1.61,3.29,5.09-2.09,6-3.41,1.62-2.39,3.18-4.78,4.79-7.17s3.23-4.72,4.85-7c1-1.31,4.67-6.51,1-6.81a4.15,4.15,0,0,0-1.68.3Q367.82,0,350.49,0q-18.67,0-30.94,12.67a44.28,44.28,0,0,0,0,60.78Q331.85,86,350.49,86t31-12.43c8-8.19,12-18.35,12-30.48a42.44,42.44,0,0,0-8.32-26A16.15,16.15,0,0,1,383.53,19Zm92.83,61.27c-.12-.06-.17-.12-.29-.18V44.46c0-4.65.23-11.5.58-20.68.29-7.81.52-13.95.52-18.42a8.4,8.4,0,0,0,2.51-2.26c1.8-3.22-4.43-3.1-6-3.1-2.79.06-5.58.06-8.37.12S459.78.06,457,.06c-1.57-.06-7.79-.18-6,3a8.63,8.63,0,0,0,2.68,2.38c0,4.24.23,10.14.64,17.76q.69,12.71.69,19c0,3.15-.29,4.7-.75,4.7-.7,0-1.57-.59-2.56-1.84-4-5.37-6.87-9.36-8.84-12.16L423,5a6.79,6.79,0,0,0,2-1.91c1.8-3.22-4.42-3.1-6-3.1-2.79.06-5.53.06-8.32.12s-5.58-.06-8.37-.06c-1.57-.06-7.8-.18-6,3a7.66,7.66,0,0,0,2.62,2.32c0,4.47.24,10.61.53,18.48.35,9.18.58,16,.58,20.68,0,4.35-.23,10.91-.64,19.61-.35,7-.53,12.51-.58,16.68A8.1,8.1,0,0,0,396.32,83c-1.8,3.1,4.43,3,6,3,2.79-.06,5.58-.06,8.37-.06s5.53,0,8.32.06c1.57,0,7.79.12,6-3a8.43,8.43,0,0,0-2.68-2.27c0-4.52-.17-10.54-.34-18.11-.24-9.3-.41-16.27-.41-20.92a2.11,2.11,0,0,1,.46-1.31,2.65,2.65,0,0,1,.88.71c5.52,7.27,9.65,12.76,12.33,16.45q12.56,17.07,17.5,23.78A5.89,5.89,0,0,0,451,83c-1.8,3.1,4.42,3,6,3,2.73-.06,5.53-.06,8.32-.06s5.58,0,8.37.06c1.57,0,7.8.12,6-3A13.45,13.45,0,0,0,476.36,80.28ZM148.41,83c1.76,3.15-4.5,3-6.08,3-1.11,0-2.28,0-3.4-.06-1.34.06-2.8.06-4.5.06s-3.22,0-4.57-.06S127,86,125.59,86c-1.58,0-7.9.12-6.08-3a4.57,4.57,0,0,1,1.28-1.31c-1.22-5-2.16-7.67-2.86-8.09-.65-.23-5.91-.41-15.8-.41-6.67,0-10.24.18-10.65.53q-1,1-2.28,6.42a4.82,4.82,0,0,1-.24,1A7.08,7.08,0,0,1,90.89,83c1.82,3.15-4.44,3-6,3-1.76,0-3.51-.06-5.27-.06s-4,.06-6.55.06h-5c-1.58,0-7.84.12-6-3a10.72,10.72,0,0,1,3.16-2.68C67,74.7,71.12,63.23,77.38,46c8-22,12.93-35.8,14.86-41.33a5.33,5.33,0,0,1-1.64-1.6c-1.34-2.38,1.7-2.91,4-3h.23a16.7,16.7,0,0,1,1.76,0c2.81,0,5.62,0,8.42.06S110.61,0,113.42,0c1.58-.06,7.84-.18,6,3a7.53,7.53,0,0,1-2.22,2c2.63,6.3,7.84,19.68,15.62,40.25,6.9,18.25,11.29,30.09,13.05,35.44A8.13,8.13,0,0,1,148.41,83ZM111.67,51.4c0-1.37-.88-5-2.69-10.94a82.26,82.26,0,0,0-3.93-11c-.81,1.72-2.16,5.53-4.15,11.41-2.11,6.25-3.16,9.87-3.16,11,0,.72,1.17,1.07,3.51,1.19,1.23.06,3.22.12,6,.12,2.57,0,4-.36,4.27-1A1.42,1.42,0,0,0,111.67,51.4Z" />
</svg>
