<svg xmlns="http://www.w3.org/2000/svg" viewBox="0 0 441 490.5">
    <title>saloon logo (vertical), by caneco</title>
    <path d="M20,14V372s41.41,0,60-26H208V6c-13.16-4.56-24.47-6-39.91-6C129.36,0,97.67,16.35,80,40,55.83,10.67,20,14,20,14ZM64,275H164v10H64Zm0-24H164v10H64Zm0-24H164v10H64Zm0-24H164v10H64Zm0-24H164v10H64Zm0-24H164v10H64Zm0-24H164v10H64Zm0-24H164v10H64Zm0-24H164V93H64Z" />
    <path d="M360,40C342.33,16.35,310.64,0,271.91,0,256.47,0,245.16,1.44,232,6V346H360c18.59,26,60,26,60,26V14S384.17,10.67,360,40Zm16,245H276V275H376Zm0-24H276V251H376Zm0-24H276V227H376Zm0-24H276V203H376Zm0-24H276V179H376Zm0-24H276V155H376Zm0-24H276V131H376Zm0-24H276V107H376Zm0-24H276V83H376Z" />
    <path d="M198.62,472.19c-.26,2.09-.65,4.12-.86,6.25s-.47,4.23-.74,6.31a9.36,9.36,0,0,1-.81,3.45,1.69,1.69,0,0,1-1,1.32,9.47,9.47,0,0,1-2.19.11c-3.1,0-22.72.38-24.32.32l-12.5-.16h-1.61c-2.56,0-5.12,0-7.69.06-1.44,0-7.16.08-5.5-2.76a9.08,9.08,0,0,1,2.75-2.3c0-3.79.16-8.78.16-15,.16-8,.22-14,.22-18,0-4.28-.17-10.69-.38-19.18-.21-7.07-.32-12.67-.37-16.83a8,8,0,0,1-2.35-2.14c-1.66-2.93,4.06-2.82,5.5-2.76,2.57,0,5.12.16,7.69.11s5.08-.06,7.64-.06c1.44-.09,7.16-.2,5.5,2.77a5.22,5.22,0,0,1-1.65,1.59q-.63,10.35-1.33,29.82l-.06,14.58c0,4.72,0,8.17.06,10.31a8.17,8.17,0,0,0,.11,1.31.9.9,0,0,0,.79.92h1.4c3.19,0,8.11-.21,14.52-.54,3.91-.22,7.19-.39,9.94-.44.75-.55,1.45-1.15,2.19-1.7a10.39,10.39,0,0,1,2.83-2.19h0C199.56,466.31,198.86,471,198.62,472.19Zm-62.56,15.05c1.61,2.95-4.13,2.76-5.57,2.76h-15.4c-1.45,0-7.19.16-5.5-2.76a4.09,4.09,0,0,1,1.17-1.21c-.53-2.52-1-5-1.71-7.37-.43-1.53-.92-3.06-1.34-4.54a17.08,17.08,0,0,1-4.79,4.83c-1.45,1-3.43-1-2.42-2.51A4.3,4.3,0,0,0,101,473a4,4,0,0,0-2.25-2.62,7.82,7.82,0,0,0-7.51.6,20.79,20.79,0,0,0-9.39,14,1.52,1.52,0,0,1-.22.65,5.41,5.41,0,0,1,1.72,1.68c1.67,2.95-4.07,2.76-5.5,2.76-1.62,0-3.22,0-4.83-.06s-3.67.06-6,.06H62.42c-1.45,0-7.19.16-5.5-2.76a10.25,10.25,0,0,1,2.9-2.47c1.62-5.18,5.4-15.69,11.13-31.6,7.34-20.26,11.86-32.91,13.62-38.05a5,5,0,0,1-1.5-1.54c-1.23-2.13,1.56-2.68,3.67-2.76h1.83c2.58.05,5.15.05,7.72.05s5.15,0,7.67-.05c1.45,0,7.19-.17,5.5,2.76a6.1,6.1,0,0,1-2,1.84q3.61,8.7,14.32,37.07c6.33,16.81,10.35,27.7,12,32.63A7.48,7.48,0,0,1,136.06,487.24Zm-32.77-27.91c-1.13-3.68-2.25-7.5-3.37-11.28a78.66,78.66,0,0,0-3.6-10.13c-.75,1.64-2,5.15-3.81,10.52-1.13,3.34-1.77,6.57-2.75,9.85-.69,2.25-1.34,4.44-2,6.63a23.92,23.92,0,0,1,3.82-3.57,12.69,12.69,0,0,1,11.53-2.08C103.18,459.27,103.24,459.33,103.29,459.33Zm-48-8a22.51,22.51,0,0,0-10.81-7.43c-.37-.06-4.13-.86-11.46-2.5-4-.83-13.23-2.5-10.55-8.74,2.69-6.45,14.15-2,18.33.23a26.16,26.16,0,0,1,5.8,4.05,6.49,6.49,0,0,1,.82.67c.43,1.06.81,2.16,1.19,3.28.33.89.65,2.83,1.46,3.84,2.18,2.51,4-3.16,4.4-4.61.82-2.5,1.59-5.07,2.44-7.56s1.77-5,2.58-7.51c.49-1.44,2.5-7-.81-6.33A5.5,5.5,0,0,0,56.38,420q-9.85-9.21-26.21-9.21c-7.66,0-17.26,3.5-22.69,9.34a23.47,23.47,0,0,0,10.59,38.77c.55.17,4.21.84,10.63,1.95,2.5.45,6.46,1.73,8.14,3.72,3,3.68-7.6,5.29-9.61,5.29a20.39,20.39,0,0,1-9-2.06,27.94,27.94,0,0,1-5.7-3.69,1.44,1.44,0,0,0-.33-.27c-.11-.29-.15-.56-.26-.84-.33-.89-.66-2.92-1.47-3.84-2.17-2.61-4,3.06-4.4,4.5-.82,2.51-1.59,5.07-2.44,7.57s-1.77,5.06-2.57,7.56c-.5,1.39-2.51,7,.8,6.34A11.12,11.12,0,0,0,5.31,483a3,3,0,0,1,.49-.28c6,4.84,13.35,7.29,22.08,7.29a44.51,44.51,0,0,0,9.83-1.06c7.49-1.7,15.2-5.78,19.6-12.51C62.46,468.54,61.1,458.42,55.3,451.33Zm384.4,35.91a12.1,12.1,0,0,0-3.05-2.51h0c-.11-.05-.15-.11-.26-.16V451.75c0-4.28.21-10.59.53-19,.26-7.19.47-12.84.47-17a7.5,7.5,0,0,0,2.3-2.08c1.65-3-4.06-2.85-5.5-2.85-2.55.05-5.11.05-7.67.11s-5.07-.06-7.61-.06c-1.44-.05-7.14-.16-5.5,2.77a7.91,7.91,0,0,0,2.45,2.19c0,3.9.21,9.33.59,16.35q.63,11.7.63,17.49c0,2.9-.26,4.33-.69,4.33-.64,0-1.43-.54-2.34-1.7-3.67-4.94-6.3-8.61-8.1-11.19l-18.21-25.69a6.17,6.17,0,0,0,1.84-1.76c1.65-3-4.06-2.85-5.5-2.85-2.56.05-5.07.05-7.63.11s-5.11-.06-7.67-.06c-1.44-.05-7.15-.16-5.5,2.77a7,7,0,0,0,2.4,2.13c0,4.12.22,9.77.49,17,.32,8.45.53,14.73.53,19,0,4-.21,10-.59,18.05-.32,6.45-.48,11.52-.53,15.36a7.34,7.34,0,0,0-2.29,2c-1.65,2.85,4.06,2.76,5.5,2.76,2.56-.06,5.11-.06,7.67-.06s5.07,0,7.63.06c1.43,0,7.14.11,5.49-2.76a7.57,7.57,0,0,0-2.45-2.09c0-4.17-.16-9.71-.31-16.68-.22-8.56-.38-15-.38-19.26a2,2,0,0,1,.42-1.21,2.36,2.36,0,0,1,.81.66q7.59,10,11.3,15.14l16,21.9a5.34,5.34,0,0,0-1.6,1.54c-1.65,2.85,4,2.76,5.5,2.76,2.5-.06,5.07-.06,7.62-.06s5.12,0,7.67.06C435.64,490,441.35,490.11,439.7,487.24ZM269.78,428.31c-2,2.91-3.95,5.77-5.93,8.64-.5.82-1.09,1.59-1.64,2.36-.39.56-.77,1.15-1.16,1.65a14.38,14.38,0,0,0-2.85,5.34,2.28,2.28,0,0,1-.49.92,21.42,21.42,0,0,1,.22,3.2,19.76,19.76,0,0,1-5.16,13.48,18.21,18.21,0,0,1-26.82.32,20.78,20.78,0,0,1,.32-27.24,17.74,17.74,0,0,1,25.1-1.73c.19.17.38.34.56.52.17,1.16.22,2.31.33,3.47a12.7,12.7,0,0,0,.39,4.07c1.48,3,4.66-1.92,5.5-3.14,1.47-2.2,2.9-4.4,4.39-6.6s3-4.35,4.43-6.45c.92-1.2,4.28-6,.92-6.27a3.84,3.84,0,0,0-1.53.28q-11-10.31-26.87-10.31-17.1,0-28.35,11.66a40.88,40.88,0,0,0,0,56Q222.41,490,239.49,490t28.42-11.45q11-11.31,11-28.06a39.19,39.19,0,0,0-7.63-23.94A14.07,14.07,0,0,1,269.78,428.31Zm81.79,0c-2,2.91-4,5.77-5.93,8.64-.49.82-1.1,1.59-1.65,2.36-.38.56-.77,1.15-1.14,1.65A14.4,14.4,0,0,0,340,446.3a2.18,2.18,0,0,1-.5.92,20,20,0,0,1,.22,3.19,19.66,19.66,0,0,1-5.13,13.45,17.39,17.39,0,0,1-13.28,6.06,17.57,17.57,0,0,1-13.57-5.7,20.82,20.82,0,0,1,.33-27.24,17.75,17.75,0,0,1,25.11-1.73l.56.52c.16,1.16.22,2.31.33,3.47a13,13,0,0,0,.38,4.07c1.48,3,4.67-1.92,5.5-3.14,1.49-2.2,2.92-4.4,4.39-6.6s3-4.35,4.45-6.45c.92-1.2,4.28-6,.92-6.27a3.83,3.83,0,0,0-1.54.28q-11-10.31-26.88-10.31-17.11,0-28.36,11.66a40.92,40.92,0,0,0,0,56Q304.2,490,321.28,490t28.42-11.45q11-11.31,11-28.06a39.14,39.14,0,0,0-7.62-23.94A15,15,0,0,1,351.57,428.31Z" />
</svg>
