<svg xmlns="http://www.w3.org/2000/svg" viewBox="0 0 940 186">
    <title>saloon logo (filled), by caneco</title>
    <path d="M74.05,0c7.72,0,13.37.72,20,3V173H30c-9.3,13-30,13-30,13V7S17.91,5.33,30,20C38.83,8.17,54.68,0,74.05,0Zm96,20C161.17,8.17,145.32,0,126,0c-7.72,0-13.37.72-20,3V173h64c9.3,13,30,13,30,13V7S182.09,5.33,170,20Z" />
    <path d="M556,127.67c-.42,3.32-1,6.55-1.37,9.94s-.76,6.73-1.18,10a15.09,15.09,0,0,1-1.28,5.49,2.71,2.71,0,0,1-1.61,2.09,15,15,0,0,1-3.48.18c-4.93,0-36.13.6-38.69.51l-19.89-.25h-2.55c-4.07,0-8.15,0-12.23.09-2.29,0-11.39.13-8.75-4.39a14.53,14.53,0,0,1,4.37-3.66c0-6,.25-14,.25-23.91.26-12.73.35-22.32.35-28.68,0-6.81-.26-17-.6-30.52-.33-11.25-.51-20.16-.59-26.78a12.79,12.79,0,0,1-3.74-3.4c-2.64-4.65,6.46-4.48,8.75-4.39,4.08,0,8.15.26,12.24.17s8.07-.08,12.16-.08c2.29-.15,11.39-.33,8.75,4.39A8.25,8.25,0,0,1,504.27,37q-1,16.49-2.13,47.45l-.08,23.2c0,7.5,0,13,.08,16.39a18.22,18.22,0,0,0,.18,2.09,1.47,1.47,0,0,0,1.27,1.47h2.21c5.09,0,12.91-.34,23.12-.87,6.21-.35,11.43-.61,15.8-.7,1.2-.86,2.31-1.83,3.49-2.69a15.89,15.89,0,0,1,4.5-3.49h0C557.48,118.31,556.37,125.81,556,127.67ZM456.46,151.6c2.56,4.7-6.56,4.4-8.87,4.4h-24.5c-2.3,0-11.43.26-8.75-4.4a6.71,6.71,0,0,1,1.87-1.92A119,119,0,0,0,413.48,138c-.68-2.45-1.45-4.88-2.12-7.24a27.13,27.13,0,0,1-7.63,7.69c-2.3,1.58-5.45-1.64-3.84-4a6.8,6.8,0,0,0,.78-5.49,6.46,6.46,0,0,0-3.59-4.18,12.45,12.45,0,0,0-11.94,1,33.08,33.08,0,0,0-14.93,22.19,2.62,2.62,0,0,1-.35,1,8.63,8.63,0,0,1,2.72,2.66c2.66,4.7-6.47,4.4-8.75,4.4-2.56,0-5.12,0-7.68-.09s-5.83.09-9.55.09h-7.29c-2.31,0-11.44.26-8.75-4.4a16.48,16.48,0,0,1,4.6-3.92c2.59-8.24,8.59-25,17.72-50.27,11.67-32.23,18.86-52.35,21.67-60.54a7.77,7.77,0,0,1-2.39-2.45c-2-3.38,2.48-4.26,5.83-4.39h2.92c4.1.09,8.19.09,12.28.09s8.19,0,12.2-.09c2.31,0,11.43-.26,8.75,4.39a9.78,9.78,0,0,1-3.24,2.93q5.75,13.84,22.78,59c10.06,26.75,16.46,44.08,19,51.91A12,12,0,0,1,456.46,151.6Zm-52.13-44.39c-1.8-5.86-3.59-11.93-5.37-17.95a122.41,122.41,0,0,0-5.73-16.11c-1.18,2.61-3.24,8.19-6.05,16.73-1.8,5.31-2.82,10.46-4.38,15.67-1.1,3.57-2.14,7.06-3.16,10.55a36.64,36.64,0,0,1,6.07-5.67,20.1,20.1,0,0,1,18.34-3.31C404.15,107.12,404.24,107.21,404.33,107.21ZM328,94.48a35.91,35.91,0,0,0-17.2-11.82c-.59-.09-6.57-1.37-18.24-4-6.27-1.34-21-4-16.78-13.92,4.28-10.25,22.51-3.09,29.16.37a41.89,41.89,0,0,1,9.23,6.44,9.61,9.61,0,0,1,1.3,1.07c.69,1.69,1.3,3.44,1.9,5.22.52,1.42,1,4.51,2.33,6.1,3.45,4,6.3-5,7-7.32,1.3-4,2.52-8.07,3.88-12s2.81-8,4.09-11.94c.79-2.3,4-11.14-1.28-10.07a8.63,8.63,0,0,0-3.67,2.08Q314,30,288,30c-12.17,0-27.46,5.56-36.09,14.87-18.47,19.71-11.56,53,16.84,61.68.88.26,6.71,1.33,16.92,3.09,4,.71,10.28,2.75,12.95,5.93,4.84,5.84-12.09,8.41-15.28,8.41A32.45,32.45,0,0,1,269,120.73a44.65,44.65,0,0,1-9.07-5.86,2.22,2.22,0,0,0-.53-.44c-.17-.46-.25-.9-.42-1.34-.53-1.42-1-4.64-2.33-6.1-3.46-4.16-6.3,4.86-7,7.16-1.3,4-2.53,8-3.88,12s-2.82,8-4.1,12c-.79,2.22-4,11.15,1.28,10.1a17.78,17.78,0,0,0,5.49-3.46,3.33,3.33,0,0,1,.78-.44c9.58,7.69,21.23,11.59,35.13,11.59A70.8,70.8,0,0,0,300,154.31c11.92-2.71,24.18-9.2,31.18-19.9C339.36,121.85,337.21,105.76,328,94.48ZM939.53,151.6a19.8,19.8,0,0,0-4.86-4v0c-.17-.08-.25-.17-.42-.26V95.15c0-6.81.34-16.84.85-30.29.42-11.44.75-20.43.75-27a12.19,12.19,0,0,0,3.66-3.31c2.63-4.72-6.46-4.54-8.75-4.54-4.06.09-8.13.09-12.2.17s-8.06-.08-12.12-.08c-2.29-.09-11.36-.27-8.75,4.39A12.81,12.81,0,0,0,901.6,38c0,6.21.34,14.85.93,26q1,18.61,1,27.83c0,4.61-.42,6.88-1.09,6.88-1,0-2.29-.86-3.74-2.69-5.83-7.87-10-13.71-12.89-17.81l-29-40.87a9.75,9.75,0,0,0,2.92-2.8C862.4,29.84,853.33,30,851,30c-4.07.09-8.06.09-12.13.18s-8.14-.09-12.21-.09c-2.29-.09-11.37-.26-8.75,4.4a11.3,11.3,0,0,0,3.82,3.39c0,6.55.35,15.55.78,27.07.51,13.45.84,23.44.84,30.29,0,6.37-.33,16-.93,28.73-.51,10.25-.77,18.32-.85,24.43A11.85,11.85,0,0,0,818,151.6c-2.63,4.54,6.46,4.4,8.75,4.4,4.07-.09,8.13-.09,12.2-.09s8.07,0,12.14.09c2.28,0,11.35.17,8.74-4.4a12.22,12.22,0,0,0-3.9-3.32c0-6.62-.25-15.44-.5-26.53-.35-13.62-.6-23.83-.6-30.64a3.09,3.09,0,0,1,.67-1.92,3.83,3.83,0,0,1,1.29,1c8,10.65,14.07,18.69,18,24.09l25.51,34.84a8.6,8.6,0,0,0-2.55,2.44c-2.62,4.54,6.45,4.4,8.75,4.4,4-.09,8.07-.09,12.13-.09s8.14,0,12.21.09C933.07,156,942.15,156.17,939.53,151.6ZM669.19,57.86C666,62.49,662.91,67,659.76,71.6c-.79,1.3-1.74,2.53-2.61,3.76-.61.88-1.23,1.83-1.84,2.62a22.85,22.85,0,0,0-4.53,8.5,3.71,3.71,0,0,1-.79,1.46,33.41,33.41,0,0,1,.35,5.09,31.33,31.33,0,0,1-8.21,21.44,28.94,28.94,0,0,1-42.67.51A33,33,0,0,1,600,71.66a28.23,28.23,0,0,1,39.94-2.76c.3.27.6.54.89.82.27,1.85.35,3.68.53,5.53a20.17,20.17,0,0,0,.61,6.47c2.36,4.82,7.42-3.06,8.75-5,2.35-3.5,4.62-7,7-10.5s4.71-6.91,7.06-10.25c1.46-1.92,6.81-9.54,1.46-10a6.2,6.2,0,0,0-2.44.44Q646.29,30,621,30,593.8,30,575.9,48.59a65,65,0,0,0,0,89Q593.83,156,621,156t45.21-18.21q17.49-18,17.5-44.65a62.27,62.27,0,0,0-12.13-38.08A23.78,23.78,0,0,1,669.19,57.86Zm130.12,0C796.17,62.49,793,67,789.89,71.6c-.79,1.3-1.75,2.53-2.63,3.76-.61.88-1.22,1.83-1.82,2.62a23,23,0,0,0-4.55,8.5,3.48,3.48,0,0,1-.79,1.46,31.93,31.93,0,0,1,.35,5.07,31.3,31.3,0,0,1-8.16,21.4,29.05,29.05,0,0,1-42.71.57,33.07,33.07,0,0,1,.52-43.32A28.23,28.23,0,0,1,770,68.9c.3.27.6.54.89.82.26,1.85.35,3.68.53,5.53a20.17,20.17,0,0,0,.61,6.47c2.35,4.82,7.42-3.06,8.75-5,2.36-3.5,4.64-7,7-10.5s4.71-6.91,7.08-10.25c1.45-1.92,6.81-9.54,1.45-10a6.25,6.25,0,0,0-2.45.44Q776.41,30,751.13,30,723.91,30,706,48.59a65.08,65.08,0,0,0,0,89Q724,156,751.13,156t45.2-18.21q17.5-18,17.5-44.65A62.36,62.36,0,0,0,801.7,55.06,23.56,23.56,0,0,1,799.31,57.86Z" />
</svg>
