<svg xmlns="http://www.w3.org/2000/svg" viewBox="0 0 200 186">
    <title>logomark (doors closed), by caneco</title>
    <path d="M170,20C161.17,8.17,145.32,0,126,0c-7.72,0-13.37.72-20,3V173h64c9.3,13,30,13,30,13V7S182.09,5.33,170,20Zm8,122.5H128v-5h50Zm0-12H128v-5h50Zm0-12H128v-5h50Zm0-12H128v-5h50Zm0-12H128v-5h50Zm0-12H128v-5h50Zm0-12H128v-5h50Zm0-12H128v-5h50Zm0-12H128v-5h50Z"/><path d="M0,7V186s20.7,0,30-13H94V3c-6.58-2.28-12.23-3-20-3C54.68,0,38.83,8.17,30,20,17.91,5.33,0,7,0,7ZM22,137.5H72v5H22Zm0-12H72v5H22Zm0-12H72v5H22Zm0-12H72v5H22Zm0-12H72v5H22Zm0-12H72v5H22Zm0-12H72v5H22Zm0-12H72v5H22Zm0-12H72v5H22Z" />
</svg>
